/* XPM */
static const char * team_logo_l_xpm[] = {
"256 64 33 1",
" 	c None",
".	c #FCFFFB",
"+	c #C9E1F3",
"@	c #9ACBE5",
"#	c #76B3D7",
"$	c #EAEFF2",
"%	c #3F98CB",
"&	c #0573BE",
"*	c #CC8385",
"=	c #C26D6E",
"-	c #9A0506",
";	c #E6B7B5",
">	c #D79C9D",
",	c #A42323",
"'	c #B54C48",
")	c #EAD5D2",
"!	c #0081BE",
"~	c #FF8381",
"{	c #FF5655",
"]	c #FF292A",
"^	c #FF0000",
"/	c #FFABAB",
"(	c #A9ABA8",
"_	c #868885",
":	c #7C7E7B",
"<	c #575956",
"[	c #000100",
"}	c #0F110E",
"|	c #F3E0DE",
"1	c #292A28",
"2	c #393B38",
"3	c #1D1F1C",
"4	c #181917",
"........................................................................................................................................................................................................................+@#@.....@@@$...........................",
"............................................................................................................................................................................$......................................$+@%&&&&&@...#&&&&&#@$$......................",
"............................*=.............................................................................................................................................--....;...............................+@%&&&&&&&&%$.@&&&&&&&&&#@$....................",
"...........................>--=......................................................................................................................................,---;>---'=,--->..........................+#%&&&&&&&&&&&#.%&&&&&&&&&&&%@+..................",
"..........................>----=$..................................>..............>-'..................................................)=*$........................----------'-'-,;'-'.......................+#%&&&&&&&&&&&&&%#&&&&&&&&&&&&&&%@$................",
".........................*--''--=$.................................'>............)---..................................................*--,.......................;---------='-$>').--).....................@%&&&&&&&&&&&&&&&&&&&&&&&&&&&&&&&&&%+...............",
"..........;>$...........*-,*)$*,-=$...........;>.................*-----------;----->)................==>='*>*>;).......................----........................*-----,)$,-..;>=-......................$#&&&&&&&&&&&&&&&&&&&&&&&&&&&&&&&&&&&&&@..............",
"..........*-'>$........*-';....)=,'$........;','.................)-----------=--------'*>.)>.........------------*;................)...----=........................*-----''--.>-=$-.....................$%&&&&&&&&&&&&&&&&&&&&&&&&&&&&&&&&&&&&&&&#.............",
"..........=---,>......*'>$.......;'=$.....;'---'..................>----->))$.>---''='------;........----------------->...........,------------''=)..................)-------;*'..*->....................$%&&&&&&&&&&&&&&&&&&&&&&&&&&&&&&&&&&&&&&&&&%$...........",
"..........'-=)*''>...>*$..........$>=...;''*;>-,.................=-------,'*>.'-='''=*)...........=----......-'....---..........)--------------------).............)>---=--------,-).-;................+&&&&&&&&&&&&&&&&&&&&&&&&&&&&&&&&&&&&&&&&&&&&%...........",
"..........'-;...$;>)))..............$;$>;$...$,-.................------------,,----'-----.........-----$--'..---...=--...........--------------------'............>-----*).)))..$>>>>,-...............$&&&&&&&&&&&&&&&&&&&&&&&&&&&&&&&&&&&&&&&&&&&&&&%..........",
"..........,,.................$................'-.................)=,->,--=>>=>'--;....'--.........-----;,--..=-->..>--...........-----,)----=.)>=,----............,-----.);).........),..............$%&&&&&&&&&&&&&&&&&&&&&&&&&&&&&&&&&&&&&&&&&&&&&&&%.........",
"..........-=...............$,->...............>-)....................-,--;-*..=--------...........-----------------;--..............;..-------...................=----;.=----------..................@&&&&&&&&&&&&&&&&&&&&&&&&&&&&&&&&&&&&&&&&&&&&&&&&&+........",
".........$-;...............;--'...............$-;....................-,--;-,..$--,>>>>$...........------->)--)>>=,-,--...............$'---'---*..................----*..)---'..*-,-..................+%&&&&&&&&&&&&&&&&&&&&&&&&&&&&&&&&&&&&&&&&&&&&&&&%$........",
".........),......$;;;;;;;;;*--';;;;;;;;;;......'>...................*----.'-'.$---------,>........'--.);...--..>....,-..........$-));----;.>--->.................-,-,.....$--''*.......>..............+@@@@#%&&&&&&&&&&&&&&&&&&&&&&&&&&&&&&&&&&&%#@@@+$.........",
".........;=......*----------------------,;.....>*.................*---*'-..--.)--')--.);,--.......,--...'-.--.$-'...,-..........*-------'...$---*................;;..>=,='===-'==>;).......................$$+#&&&&&&&&&&&&&&&&&&&&&&&&&&&&&&%@+$...............",
".........>;......'--'''',--'''''--'='=,-->.....$*.................$--'.,-..*-.;------=>=---.......---...--'--;)--...=-..........;------;.....=---=..................;-----------------;........................$@&&&&&&&&&&&&&&&&&&&&&&&&&&%@$..................",
".........;.......'--)$$)=-,)$$$>--*$$$*-->......>..................--;.,-...=.'----------').......---..)---------...'-..........)-----,.......----'..................---,)))$--,>);>*';..........................$#&&&&&&&&&&&&&&&&&&&&&&&@$....................",
"...);))).).......'--)..$=-,)...;-->...*-->......).)));)............$>..--.....>---'-->)--.........---..=-*.,-...-)..=-...........$=))..........-----'$..=...................'--=...................................@&&&&&&&&&&&&&&&&&&&&%+......................",
"...)-,===).......'--)..$=-,)...;-->...*-->......$==='->................--.....)----------.........---..)-..$)...-)..*-.........................*------',>..................'---)....................................+%&&&&&&&&&&&&&&&&&%$.......................",
"...$='$..........'--$..$=-,)...;-->...>-->..........=')................,.......,=,-*>=--,.........--,...............;-..........................=------.............),....$----.................+##$.................+%&&&&&&&&&&&&&&&%$.................+##$...",
"....),>..........;,=....;,*$...$'')...$''$.........),>............................................'*................),...........................,---;...............--''-----..................#&&#..................+%&&&&&&&&&&&&&%$.................$#&&@...",
".....*'$.........$;).......)...).......))..........*'$..............................................................;;............................$..................-------->.................$&&&&+..................@&&&&&&&&&&&&%+..................@&&&%$..",
".....)';.........=--))))$.>'>)>'>.$)))>--;........)'>...............................................................*................................................,------,..................+&&&&%$.............++...#&&&&&&&&&&&@...@$.............+&&&&&$..",
"......**.........'--,,,,>.)'-,-').*,,,,--*........;'$..................................................................................................................$-,=....................#&&&&&%$...........$%&#$..%&&&&&&&&&#..+#&#............+%&&&&&@..",
"......)')........'--=***;.)'-,-').>=**'--*.......$=;...........................................................................................................................................%&&&&&&%...........@&&&%@.+&&&&&&&&&$.#&&&&+..........+%&&&&&&#..",
".......*>........'-->;;)..>'>)*'>.$;;;=--*.......)'......................$&%...........++++++$+++++++++..........$&#.................%!..................&#...........@&#..@&#....&!...........&&&&&&&&%$........$&&&&&&%+%&&&&&&&#@&&&&&&%.........+&&&&&&&&%..",
"..);)..$=).......'--,,,,*.;*...*)$=-,,---*.......=)..$;;.................$!%...........&&&&&##&&&&&&&&!....+@@@@@@!%@@@@@@$..........%!..................&#............%&$..%!$..@&@..........+&&&&&&&&&&@.......+%&&&&&&&%&&&&&&&%&&&&&&&%........#&&&&&&&&&&..",
"..$-,'>);$.......'--'===).*-,*,-*.;==='--*.......;)>=,-;.................$!%...........&#$@!@#!@@@@@@@@....%&&&&&&&&&&&&&&@...$+$$$$$%!+$$$$+$...........&#............+!#..@!@..!!$..........@&&&&&&&&&&&#$.......@&&&&&&&&&&&&&&&&&&&&%+.......+%&&&&&&&&&&&$.",
"...*->...........'--*>>>$..=---*..)>>>'--*..........),'$.................$!%...........&#.#!$#!............%!+++@@+++++@@+$...@!!!!!!!!!!!!!!#...........&#..........@!%!!%%!!!%!!!%%$........@&&&&&&&&&&&&&#+$.....$#&&&&&&&&&&&&&&&&%#......$+#&&&&&&&&&&&&&+.",
"...$,'...........=------=.>,-'-,;$'-----,;..........>-;............$$$$$$+!%$$$$$$$....&#.%%.#!............%!...!!.....!!.....+%%%%%%%%%%%%%%#...$+$$$$$+&#$$$$$$$...@&!%%%%%%%%%%%!!$........#&&&&&&&&&&&&&&&%@++$...+%&&&&&&&&&&&&&#+..$$++@%&&&&&&&&&&&&&&&+.",
"....*,)..........$>*****).>').;'>.;*****>..........$''$...........$!!!!!!!!!!!!!!!!$...&#$&+.#!@@@@@@@$....%!..+!#.....!%.......+%+.......%@.....@!!!!!!!!!!!!!!!%$..@&+...........%!$........#&&&&&&&&&&&&&&&&&&%%#####&&&&&&&&&&&&&#####%%&&&&&&&&&&&&&&&&&&+.",
"....)'>..........)>>>>>>>*>>>*>>>*>>>>>>;..........)';............$%%%%%%%!!%%%%%%%$...&@%!..#&&&&&&&&$....%!..#!++++++!%+$.....$&#......+&+.....+%%%%%%%!!%%%%%%%$..@&+@@@@@@@@@@+%!$........#&&&&&&&&&&&&&&&&&&&&&&&&&&&&&&&&&&&&&&&&&&&&&&&&&&&&&&&&&&&&&&&+.",
".....>=..........=-----------------------;.........>=$...................+!&...........&##&+.#!@@+++#&$....%!..!%@&&&&&!!&@......!%......#!$............@&!$.........@&+!&&&&&&&!!#%&$........#&&&&&&&&&&&&&&&&&&&&&&&&&&&&&&&&&&&&&&&&&&&&&&&&&&&&&&&&&&&&&&&+.",
".....$*).........'--=*===============*'-->........$*;....................#!&@..........&#.%!.#!@&$..#&.....%!.@&%+#####!!#+......%!......%!$............#&!@.........$+.$$$$$$+#&!+$$.........@&&&&&&&&&&&&&&&&&&&&&&&&&&&&&&&&&&&&&&&&&&&&&&&&&&&&&&&&&&&&&&&+.",
"..);*=*).........'--)>,,,,,,,,,,,,,,,;*-->........$>==>).................%!!%..........&#.@!+#!.&#..!%.....%!+!!%......!%........@&$.....!%.............!!!#................$+%&%$............@&&&&&&&&&&&&&&&&&&&&&&&&&&&&&&&&&&&&&&&&&&&&&&&&&&&&&&&&&&&&&&&$.",
"..>-,;$..........'--)=-';;;;;;;;;;;'->*-->.........$)'-=................$&%#&+.........&#.$&@%!.%!.$&@.....%!%!!%.!&$..!%........$&@....+!#............@!@!!................@&!#..............+&&&&&&&&&&&&&&&&&&&&&&&&&&&&&&&&&&&&&&&&&&&&&&&&&&&&&&&&&&&&&&&..",
"..$',;...........'--)=-,*=========*,->*-->..........)',)................%&$+!#.........&#.$&@!%.#&+%!$.....%!%+%%.$&!..!%........$!%....@!@............%!+@&@........+######%!%######$........$&&&&&&&&&&&&&&&&&&&&&&&&&&&&&&&&&&&&&&&&&&&&&&&&&&&&&&&&&&&&&&%..",
"...)-'...........'--);======,--======)*-->..........*-;................@!%..!!+........&#$+!@!%.+!%!%.....$%!..%%..#!@.!%.........%!....#&$...........@&%..%&$.......@!!!!!!!!!!!!!!!$.........%&&&&&&&&&&&&&&&&&&&&&&&&&&&%%&&&#%&&&&&&&&&&&&&&&&&&&&&&&&&&&#..",
"....;,>..........'--).$$$$$.,--$.$$$$.*-->.........),*.................!!+..$&!$.......&#!!!#!#..%!&+.....$!%..%%..+&%.!%.........#!+...!%...........+!!$..@!%.......$+$$$$$#!@$$$$$$..........#&&&&&&&&&&&&&&&&&&&&&&&&&&&+%&&&@@&&&&&&&&&&&&&&&&&&&&&&&&&&&@..",
".....='$.........'--)=---------------;*-->.........*')...............$!&#....@!%$......&#!!#@!@..%&!$.....$!#..%%......!%.........+&#..+&@..........+!!@....%&%.............@!+................@&&&&&&&&&&&&&&&&&&&&&&&&&&@.%&&&#.#&&&&&&&&&&&&&&&&&&&&&&&&&&+..",
".....)'>.........'--);=*****,--====,->*-->........)';...............@!!#......%&!@.....&#...%!..%&!!!$....+&@..%%......!%..........!%..%!..........#!&#......%!!+...........@!+................$&&&&&&&&&&&&&&&&&&&&&&&&&%.$%&&&#.$&&&&&&&&&&&&&&&&&&&&&&&&&%$..",
"......;=)........'--)$;;;;;),--...$'->*-->........>*..............$%&!%........#!&%$...&#..+&#+!!%.#!!+...#&$..%%...$+$!%....$%%%%%!&%%!!!%%%!+..+%&!#.......$%!&#.......$+$#!+................$%&&&&&&&&&&&&&&&&&&&&&&&&@.$%&&&#..#&&&&&&&&&&&&&&&&&&&&&&&&#...",
".......>;........*-,$*---------...$'-;;-,;.......)*...............$&!@..........@!&@...&#..!!.%!+...@!%...##...%%...@!!&%....$%%%%%%%%%%%%%%%!+..#&%+..........@&&+......%!!!!+.................@&&&&&&&&&&&&&&&&&&&&&&&&$.$%&&&#..+&&&&&&&&&&&&&&&&&&&&&&&&+...",
"..$)....>$.......$;).)>;;;;;;;;....)>$$;;........;$...))..........$#..............#@...%@.@%@.@......$@........#@...+###$........................@#..............#$......#%%%#..................+%&&&&&&&&&&&&&&&&&&&&&&#..$%&&&#...%&&&&&&&&&&&&&&&&&&&&&&%$...",
"..$,'=>)))......................................$);*',,;.........................................................................................................................................+%%%%%&&&&&&&&&&&&&&&&&@...#%%%@...#&&&&&&&&&&&&&&&&&%%%%#+....",
"...>---,,,'=*;$)))$.........)').........)))$)**',,,---=$..............................................................................................................................................#&&&&&&&&&&&&&&&&&$...........@&&&&&&&&&&&&&&&&&@.........",
"....;,-------,='------,>$..>->$...;'------,*'--------*$..................................................)~{]^^^^{/..................................................................................+&&&&&&&&&&&&&&&&&&$...........+&&&&&&&&&&&&&&&&&&$........",
"......;=',----,=;)));>=-').,,'-;.*-'>>))))*,----,'=>$.................................................;{^^^^^^^^^^^{..........)(((((......(((()....$_:<::)...)((((((((((((...........................%&&&&&&&&&&&&&&&&&%$...........$&&&&&&&&&&&&&&&&&&#........",
"......>,'*>>**='*;'--'*;,*.'-',;;-*>',-,*;'=**>>*=,=................................................~^^^^^^^^^^^^^^^/........$[[[[[[......[[[[:..(}[[[[[[[}).<[[[[[[[[[[[[..........................@&&&&&&&&&&&&&&&&&&%$...........$&&&&&&&&&&&&&&&&&&&+.......",
".......>,-----,''*)>===**'))',=$*'>===*);'',,----,=$.............................................|{^^^^^^^^^^^^^^^^^^........1[[[[[[$....([[[[).<[[[[11[[[[2.[[[[[[[[[[[[2..........................#&&&&&&&&&&&&&&&&&&#............$%&&&&&&&&&&&&&&&&&&@.......",
"........)>=='''',,>',',=*')*=****'>'','>',,''''=*).............................................)]^^^^^^^]]^^^^^^^^^^^|......([[[3[[[)....2[[[[._[[[[$..<[[[}.::::[[[[<:::(..........................$%&&&&&&&&&&&&&&&&&#............$%&&&&&&&&&&&&&&&&&%........",
"............;'==''=;===>*=$'->>;;';*==;*''=='>$..............................................){^^^]{/.......]^^]]]]^^/......[[[2<[[[(....[[[[<.}[[[2...<222_...._[[[[$...............................+&&&&&&&&&&&&&&&&&%$...........$&&&&&&&&&&&&&&&&&%$........",
"............)=-----**''>=>.=-'=$)=>='=;-----';.............................................|{^^]~|.....|/~{^^)......)/.....2[[[$<[[[(...)[[[[_.[[[[[(...........1[[[}.................................@&&&&&&&&&&&&&&&&%$...........$&&&&&&&&&&&&&&&&&+.........",
".............$)>'=*>;>*>';.=->;))'***;>*='*)).............................................~^^{)...../~]^^^^^^~......);....([[[<.<[[[_...<[[[[..[[[[[[}:(........[[[[:..................................@&&&&&&&&&&&&&&&&$...........+&&&&&&&&&&&&&&&&+..........",
"...............$'---'>'='>.=-*>*)'='=*---,)............................................./^^~.....~{^^^^^^^^^^~.....)^|....}[[[..2[[[:...3[[[2..([[[[[[[[3(.....([[[[(...................................@&&&&&&&&&&&&&&&+...........@&&&&&&&&&&&&&&&+...........",
"................$>===$=>*=.=-*>*;'>=)*==*)............................................|]^/....;{^^^^^^^^^^^^^|....{^^....<[[[<..2[[[:..$[[[[:...):[[[[[[[[$....<[[[[.....................................@&&&&&&&&&&&&&&@...........%&&&&&&&&&&&&&%+............",
"...................;=====')=-*>===*'==*..............................................~^/..../]^^^^^^^^^^^^^^]...~^^^{...([[[[___4[[[:..:[[[[$......(<[[[[[_....[[[[<......................................+%&&&&&&&&&&&&%..........$&&&&&&&&&&&&&#$.............",
"...................$',,'=,;*-*>='==,,,)............................................)^~..../^^^^^^^^^^^^^^^^^|){^^^^^/...4[[[[[[[[[[[<..2[[[}._:::(...<[[[[(...$[[[[_.......................................$#&&&&&&&&&&&&+.........@&&&&&&&&&&&%@...............",
"......................)>'-)=-*>=',*)$.............................................~{....|]^^^^^^^^^^^^^^^^^]^^^^^^^^...:[[[[[[[[[[[[<..[[[[<.[[[[_...<[[[[....:[[[[$.........................................@%&&&&&&&&&&#.........%&&&&&&&&&&#+................",
"......................)='>.*->=*;=';............................................|{)....|^^^^^^^^^^^^^^^^{//^^^^^^^^{..$[[[[($$$$}[[[2.([[[[()[[[[<$$_[[[[(....1[[[1...........................................$@%&&&&&&&&&+.......@&&&&&&&&&#+..................",
"...........................)*)>).............................................../~......~^^^^^^^^^^^^{~)..|^^^^^^^^^;..1[[[4.....}[[[2.:[[[[..}[[[[[[[[[[_.....[[[[:.............................................$+#&&&&&&&#.......%&&&&&&&#+$...................",
"............................................................................../|........{{]]]]{{~/......|]^^^^^^^^]..(}44}(.....34442.1444<..$<}[[[[[1:$.....(444})................................................$@%&&&&#.......%&&&&#+$......................",
".......................................................................................................................................................................................................................+@@........$#@+.........................."};
