/* XPM */
static const char * team_logo_xpm[] = {
"192 48 17 1",
" 	c None",
".	c #010300",
"+	c #9C090B",
"@	c #FF0A09",
"#	c #4A4B48",
"$	c #B03E3C",
"%	c #0473BE",
"&	c #288CC6",
"*	c #D16764",
"=	c #CC8383",
"-	c #6DB0D8",
";	c #C2A2A0",
">	c #E8BBB9",
",	c #ACD2E7",
"'	c #E4CDCB",
")	c #E8E6E6",
"!	c #FCFEFB",
"!!!!!!!!!!!!!!!!!!!!!!!!!!!!!!!!!!!!!!!!!!!!!!!!!!!!!!!!!!!!!!!!!!!!!!!!!!!!!!!!!!!!!!!!!!!!!!!!!!!!!!!!!!!!!!!!!!!!!!!!!!!!!!!!!!!!!!!!!!!!!!!!!!!!!!!!!!!!!!!!!),--!!!)--))!!!!!!!!!!!!!!!!!!!",
"!!!!!!!!!!!!!!!!!!!!!')!!!!!!!!!!!!!!!!!!!!!!!!!!!!!!!!!!!!!!!!!!!!!!!!!!!!!!!!!!!!!!!!!!!!!!!!!!!!!!!!!!!!!!!!!!!!!!!!!!!!!!!!!==!!!!!!!!!!!!!!!!!!!!!!!!!!!),-&%%%%-!)&%%%%&-,!!!!!!!!!!!!!!!!",
"!!!!!!!!!!!!!!!!!!!!>+$!!!!!!!!!!!!!!!!!!!!!!!!!!!!!!!!!!!!!!!!!!!!!!!!!!!!!!!!!!!!!!!!!!!!!!!!!!!!!!!!!!!!!!!!!!!!!!!!!!!!!++$'++$=$++>!!!!!!!!!!!!!!!!!!!)-&%%%%%%%%)-%%%%%%%%&,!!!!!!!!!!!!!!",
"!!!!!!!!!!!!!!!!!!!>+++$)!!!!!!!!!!!!!!!!!!!!!!!!!=!!!!!!!!!!'+$!!!!!!!!!!!!!!!!!!!!!!!!!!!!!!!!!!!!!'*;!!!!!!!!!!!!!!!!!!+++++++++*+==+=!!!!!!!!!!!!!!!!!-&%%%%%%%%%%-%%%%%%%%%%%-,!!!!!!!!!!!!",
"!!!!!!!)'!!!!!!!!!>+$;=+$)!!!!!!!!!'!!!!!!!!!!!!!;$*======>==$$=!!!!!!!!!!!!>'>>'''!!!!!!!!!!!!!!!!!!*++)!!!!!!!!!!!!!!!!!*++++$=$$!>===>!!!!!!!!!!!!!!!)&%%%%%%%%%%%%%%%%%%%%%%%%%%-!!!!!!!!!!!",
"!!!!!!!'+=)!!!!!!>+*)!!'$$)!!!!!!>$$!!!!!!!!!!!!!*++++++++$+++++$=>!>!!!!!!)++++++++$>!!!!!!!!!!!!)!!+++=!!!!!!!!!!!!!!!!!!*+++$*+=>+'+!!!!!!!!!!!!!!!!,%%%%%%%%%%%%%%%%%%%%%%%%%%%%%&!!!!!!!!!!",
"!!!!!!!>+++=)!!!>*>!!!!!!=*)!!!'*++$!!!!!!!!!!!!!'++++>')!*++$=$++++>!!!!!)+++++++++++++'!!!!!!!'++++++++++$*'))!!!!!!!!!!!>+++++>$')+=!)!!!!!!!!!!!!!,%%%%%%%%%%%%%%%%%%%%%%%%%%%%%%%&)!!!!!!!!",
"!!!!!!!>+>)>=>))>!!!!!!!!!';)'>=>)=+!!!!!!!!!!!!)+++++++$$*+$+$$*=;!!!!!!=+++)=;!)+=!!*+=!!!!!!!'+++++++++++++++'!!!!!!!!)=$++===*==*$>>+)!!!!!!!!!!!-%%%%%%%%%%%%%%%%%%%%%%%%%%%%%%%%%&)!!!!!!!",
"!!!!!!!=+!!!!!!!!!!!!!!!!!!!!!!!!!>+!!!!!!!!!!!!!=++*++==**++'!);++!!!!!!=+++>++)!$+>!>+=!!!!!!!'++++>+++=)=$+++=!!!!!!!!;++++!''!!!!!!)*)!!!!!!!!!!,%%%%%%%%%%%%%%%%%%%%%%%%%%%%%%%%%%%&!!!!!!!",
"!!!!!!!=*!!!!!!!!!!!!+$!!!!!!!!!!!)+)!!!!!!!!!!!!!!)+++**!'++++++!!!!!!!!=++++++++++++=+=!!!!!!!!!!'!+++++=!!!!!!!!!!!!!)+++*!*+++++++'!!!!!!!!!!!!!&%%%%%%%%%%%%%%%%%%%%%%%%%%%%%%%%%%%%,!!!!!!",
"!!!!!!!=>!!!!)))))))>++')))))))!!!!$>!!!!!!!!!!!!!!>+++=+>!++$***==!!!!!!=++=*=!++!>'==+=!!!!!!!)>!'$++=*++>!!!!!!!!!!!!'+++!!)=+$>===)!!'!!!!!!!!!!,-&&&%%%%%%%%%%%%%%%%%%%%%%%%%%%&&&&-)!!!!!!",
"!!!!!!!=)!!!!$++++++++++++++++$)!!!==!!!!!!!!!!!!'$+$$+!+$!++=++)>++)!!!!=++!!*;$+!$=!!+=!!!!!!!=+++++*!!>++>!!!!!!!!!!!!=')=$===*+==>)!!!!!!!!!!!!!!!!!))-%%%%%%%%%%%%%%%%%%%%%%%-,)!!!!!!!!!!!",
"!!!!!!)>!!!!)++***++****+$=**++'!!!!=!!!!!!!!!!!!!++'$+!>+)+++++=*++)!!!!=++!!++++>++!!*=!!!!!!!>++++>!!!)$++>!!!!!!!!!!!!!=++++++++++++*!!!!!!!!!!!!!!!!!!!,%%%%%%%%%%%%%%%%%%%&,!!!!!!!!!!!!!!",
"!!))!)!)!!!!)++)!!*+'!!>+$!!'++'!!!!>!)))!!!!!!!!!=*!$+!!>>+++++=++'!!!!!=++!>+*++==+!!$=!!!!!!!'$*==!!!!!'+++=>!!>!!!!!!!!!==;!!;+$))''>!!!!!!!!!!!!!!!!!!!!)-%%%%%%%%%%%%%%%&,!!!!!!!!!!!!!!!!",
"!!)+*==)!!!!)++)!!*+>!!>+$!!'++'!!!!)==$$!!!!!!!!!!!!++!!!)++++++++!!!!!!=++!'+!)'!!+!!*=!!!!!!!!!!!!!!!!!!=++++$$>!!!!!!!!!!!!!=++>!!!!!!!!!!!!!!!!!!!!!!!!!!!,%%%%%%%%%%%%%&)!!!!!!!!!!!!!!!!!",
"!!!==!!!!!!!)++!!!*+'!!'+*!!)++'!!!!!!!*=!!!!!!!!!!!!$!!!!!*=+=>*+*!!!!!!=+*!!!!!!!!!!!>=!!!!!!!!!!!!!!!!!!!=++++)!!!!!!!!!>=)))+++)!!!!!!!!!!!!,-,!!!!!!!!!!!!!,%%%%%%%%%%%&)!!!!!!!!!!!!!--)!!",
"!!!'$)!!!!!!!>>!!!'>)!!!>'!!!>>!!!!!!!>$)!!!!!!!!!!!!!!!!!!!!!!!!!!!!!!!!'>!!!!!!!!!!!!>>!!!!!!!!!!!!!!!!!!!!===!!!!!!!!!!!)++++++>!!!!!!!!!!!!!&%&!!!!!!!!!!!!!!-%%%%%%%%%&,!!!!!!!!!!!!!,%%-!!",
"!!!!=>!!!!!!)$+)))!'*>'*>!))'$$)!!!!!!*>!!!!!!!!!!!!!!!!!!!!!!!!!!!!!!!!!!!!!!!!!!!!!!!=!!!!!!!!!!!!!!!!!!!!!!!!!!!!!!!!!!!)+++++$!!!!!!!!!!!!!)%%%-!!!!!!!!!!))!!&%%%%%%%%,!!,!!!!!!!!!!)%%%&!!",
"!!!!'=!!!!!!)+++++>!*++$)'$++++'!!!!!'*!!!!!!!!!!!!!!!!!!!!!!!!!!!!!!!!!!!!!!!!!!!!!!!!!!!!!!!!!!!!!!!!!!!!!!!!!!!!!!!!!!!!!!!+*!!!!!!!!!!!!!!!-%%%%-!!!!!!!!!&%,!!&%%%%%%-!)-%,!!!!!!!!)&%%%%,!",
"!!!!!*'!!!!!)++=>>))***$')>>=++'!!!!!='!!!!!!!!!!!!!!!!,,!!!!!!!!!!!!)!!!!!!!!!!!!!!!,,!!!!!!!!!!!!!-!!!!!!!!!!!!!!,!!!!!!!!)-)!,-)!!,-!!!!!!!!&%%%%%-!!!!!!!,%%%&,-%%%%%%,-%%%&!!!!!!!)&%%%%%,!",
"!)>)!)=)!!!!)++$$$;)=!!=''+$+++'!!!!)=!!)>!!!!!!!!!!!!!-&!!!!!!!!&%%%-&%%%%%%)!!),,,,-&,,,,)!!!!!!!)&)!!!!!!!!!!!!)&!!!!!!!!!&&!!&-!!&-!!!!!!!!&%%%%%%&)!!!!!-%%%%%&%%%%%&&%%%%%)!!!!!,%%%%%%%-!",
"!!++=''!!!!!)++*==)'++$+;)==*++'!!!!!'>*+>!!!!!!!!!!!!!-&!!!!!!!!%,)&,&,,,,,,!!!-%%%%%%%%%%-!!!,),,,&,),),!!!!!!!!)&!!!!!!!!!)&,!-&),%,!!!!!!!)%%%%%%%%&,!!!!!,%%%%%%%%%%%%%%%-!!!!!)-%%%%%%%%-!",
"!!'+'!!!!!!!)++$$$>!*++$)'*$$++'!!!!!!!>$)!!!!!!!!!!!!!-&!!!!!!!!&,,&!&!!!!!!!!!-&!!-,!!!--!!!)&&&&&&&&&&&,!!!!!!!)&!!!!!!!!&&&&&&&&&&&&!!!!!!,%%%%%%%%%%&-,!!!!,&%%%%%%%%%%-,!!!!,-&%%%%%%%%%-!",
"!!!*=!!!!!!!!>====''$''$>)=====!!!!!!!!$=!!!!!!!!!&&&&&&&&&&&&)!!&--,!&,,,,,)!!!-&!)&,!!!&-!!!!!,-))))!,-!!!!-&&&&&&&&&&&,!!&,!!!!!!!!-&!!!!!!,%%%%%%%%%%%%%&--,--%%%%%%%%%%-----%%%%%%%%%%%%%-!",
"!!!'*!!!!!!!!>================>!!!!!!!'*)!!!!!!!!!-----&&-----)!!%,&)!&%%%%%-!!!-&!-&,,,,&&,!!!!)&!!!!!&,!!!!,----&&-----,!!&,-------,-&!!!!!!,%%%%%%%%%%%%%%%%%%%%%%%%%%%%%%%%%%%%%%%%%%%%%%%-!",
"!!!!='!!!!!!)++$$$$$$$$$$$$$$++'!!!!!!=>!!!!!!!!!!!!!!!-%!!!!!!!!&---!&,-!!--!!!-&!&--&&&&&-!!!!)&)!!!!&,!!!!!!!!!-%,!!!!!!!-)-----&%&,-!!!!!!,%%%%%%%%%%%%%%%%%%%%%%%%%%%%%%%%%%%%%%%%%%%%%%%-!",
"!)'=='!!!!!!)++'*$++++++++$$>++'!!!!!!>=='!!!!!!!!!!!!!&%-!!!!!!!&-)&)&)%,!&,!!!-&-&-!!!!&-!!!!!!&)!!!)&)!!!!!!!!!&%-!!!!!!!!!!!!),%&)!!!!!!!!)%%%%%%%%%%%%%%%%%%%%%%%%%%%%%%%%%%%%%%%%%%%%%%%-!",
"!'+$)!!!!!!!)++'$$>>>>>>>>*+=++'!!!!!!!'+*!!!!!!!!!!!!,&-%)!!!!!!&-!%,&!&-)%)!!!-&&&-,%)!&-!!!!!!--!!!,&!!!!!!!!!,&-%!!!!!!!!!!!!-%-!!!!!!!!!!!%%%%%%%%%%%%%%%%%%%%%%%%%%%%%%%%%%%%%%%%%%%%%%%-!",
"!!;+'!!!!!!!)++'*$=**$$***$$>++'!!!!!!!=$)!!!!!!!!!!!)&-!%,!!!!!!&-!&,&!-&&&!!!!-&)--!-&!&-!!!!!!-&!!!--!!!!!!!!!&&!&-!!!!!!-&&&&&&&&&&&!!!!!!!&%%%%%%%%%%%%%%%%%%%%%&%%&%%%%%%%%%%%%%%%%%%%%%,!",
"!!!=*!!!!!!!)++)!)))!++'!)))'++'!!!!!!)+>!!!!!!!!!!!!&&)!,%)!!!!!&-&&-&!)&%,!!!!&-!--!)%,&-!!!!!!,&)!!&,!!!!!!!!-%)!,&,!!!!!,,,,)-&,,,,)!!!!!!!-%%%%%%%%%%%%%%%%%%%%,&%%,&%%%%%%%%%%%%%%%%%%%%,!",
"!!!!$'!!!!!!)++'$+++++++++++>++'!!!!!!=*!!!!!!!!!!!!-%,!!!-&)!!!!&-&---!)%%)!!!!&,!--!!!!&-!!!!!!!%-!,%)!!!!!!!,%,!!!&%,!!!!!!!!!--!!!!!!!!!!!!,%%%%%%%%%%%%%%%%%%%-!&%%-)%%%%%%%%%%%%%%%%%%%&!!",
"!!!!>=!!!!!!)++)>>>>'++>>'$+=++'!!!!!)*)!!!!!!!!!!,&%,!!!!)&%-!!!&-!!%,,%--&,!!)%)!--!!!!&-!!!,,,,&&,&&,,,,!!,&%-!!!!!-%-)!!!!!!!--!!!!!!!!!!!!!%%%%%%%%%%%%%%%%%%%,!&%%-!&%%%%%%%%%%%%%%%%%%-!!",
"!!!!!=>!!!!!)$+)$++++++)!!*+>+$)!!!!!>)!!!!!!!!!!!&&,!!!!!!!-%-!!%-!&&,%,!!-&)!,-!!--!!-&%-!!!-&&&&&&&&&&&-!!&&,!!!!!!!,%-!!!!)&&&-!!!!!!!!!!!!!-%%%%%%%%%%%%%%%%%%!!&%%-!)%%%%%%%%%%%%%%%%%%)!!",
"!!'))!>!!!!!!)'!'>>>>>>!!!)>!''!!!!!!'))''!!!!!!!!,!!!!!!!!!!,,!!-,)-,)!!!!!)!!!!!!,,!!,--!!!!!!!!!!!!!!!!!!!-!!!!!!!!!!!,!!!!!---,!!!!!!!!!!!!!,&%%%%%%%%%%%%%%%%,!!&%%-!!&%%%%%%%%%%%%%%%%&!!!",
"!!*+$===>'!!!!!!!!!!!)>!!!!!!!!!!)'>==$++>!!!!!!!!!!!!!!!!!!!!!!!!!!!!!!!!!!!!!!!!!!!!!!!!!!!!!!!!!!!!!!!!!!!!!!!!!!!!!!!!!!!!!!!!!!!!!!!!!!!!!!!,,,-%%%%%%%%%%%%%)!!,,,)!!-%%%%%%%%%%%%&,,,)!!!",
"!!!=++++++**+++++=!!>+'!!)*+++++=$++++++>!!!!!!!!!!!!!!!!!!!!!!!!!!!!!!!!!!!!!!>*@@@@=!!!!!!!!!!!!!!!!!!!!!!!!!!!!!!!!!!!!!!!!!!!!!!!!!!!!!!!!!!!!!!-%%%%%%%%%%%%%!!!!!!!!!,%%%%%%%%%%%%%)!!!!!!",
"!!!!)=$++++*>''>=+$!$++=)$$=>''>$+++$*=!!!!!!!!!!!!!!!!!!!!!!!!!!!!!!!!!!!!)>$@@@@@@@@@!!!!!!!);;;;!!!!';;;!!))####'!!;;;;;;;;;'!!!!!!!!!!!!!!!!!!!)%%%%%%%%%%%%%&!!!!!!!!!,%%%%%%%%%%%%%&!!!!!!",
"!!!!)*$$*$$$==*$=>$>>+$'=*=*$*=*$*$*$$;!!!!!!!!!!!!!!!!!!!!!!!!!!!!!!!!!!'*@@@@@@@@@@@@*!!!!!!#....!!!!#..#!;.......#).........;!!!!!!!!!!!!!!!!!!!-%%%%%%%%%%%%%&!!!!!!!!!)%%%%%%%%%%%%%%,!!!!!",
"!!!!!!>**$$$+=*$$*========*$$>$+$$$*='!!!!!!!!!!!!!!!!!!!!!!!!!!!!!!!!!!@@@@@@@@@@@@@@@@!!!!!;.....)!!)...;;...))#...!###...###)!!!!!!!!!!!!!!!!!!!,%%%%%%%%%%%%%-!!!!!!!!!)&%%%%%%%%%%%%&!!!!!!",
"!!!!!!!!!>$*$$>=*=='*+=>>==*==$**$'!!!!!!!!!!!!!!!!!!!!!!!!!!!!!!!!!!'*@@@*>!!!!!@@@@@@@'!!!!..##..'!!)...'....!!;##;!!!#...!!!!!!!!!!!!!!!!!!!!!!!!-%%%%%%%%%%%%&!!!!!!!!!,%%%%%%%%%%%%&)!!!!!!",
"!!!!!!!!!)=$+$=>*=*)=+=)'==*>*$$*=!!!!!!!!!!!!!!!!!!!!!!!!!!!!!!!!!!*@@*'!!'>*@@@@)!!!!)'!!!#..)#..;!!;...!....#;)!!!!!!...#!!!!!!!!!!!!!!!!!!!!!!!!!-%%%%%%%%%%%%!!!!!!!!!,%%%%%%%%%%%%,!!!!!!!",
"!!!!!!!!!!!)$++*==$)=+=='*$=$++=!!!!!!!!!!!!!!!!!!!!!!!!!!!!!!!!!!=@$)!!!*@@@@@@@@>!!!!@!!!;..#!#..;!!...#!;......#)!!!'...;!!!!!!!!!!!!!!!!!!!!!!!!!!-%%%%%%%%%%%)!!!!!!!!-%%%%%%%%%%%,!!!!!!!!",
"!!!!!!!!!!!!)===>==>=+==>=='==;!!!!!!!!!!!!!!!!!!!!!!!!!!!!!!!!!'@@)!!>$@@@@@@@@@@!!)=@@!!)...;!...;!)...;!!'#.....#!!!#...!!!!!!!!!!!!!!!!!!!!!!!!!!!!-%%%%%%%%%%,!!!!!!!!&%%%%%%%%%&,!!!!!!!!!",
"!!!!!!!!!!!!!!)$$$*==+==*=$$=!!!!!!!!!!!!!!!!!!!!!!!!!!!!!!!!!!**>!!*@@@@@@@@@@@@>'*@@@=!!#...##...;!#...!'''!);...#!!!...#!!!!!!!!!!!!!!!!!!!!!!!!!!!!!,&%%%%%%%%&!!!!!!!)%%%%%%%%%-)!!!!!!!!!!",
"!!!!!!!!!!!!!!!)'=$*=+==$$>')!!!!!!!!!!!!!!!!!!!!!!!!!!!!!!!!>*'!!'@@@@@@@@@@@@@@@@@@@@!!;.........#!...#)...'!!...#!!)...'!!!!!!!!!!!!!!!!!!!!!!!!!!!!!!)-%%%%%%%%,!!!!!!-%%%%%%%&,!!!!!!!!!!!!",
"!!!!!!!!!!!!!!!!)=*);+==>*>!!!!!!!!!!!!!!!!!!!!!!!!!!!!!!!!!>=!!!)@@@@@@@@@@@@*>@@@@@@$!!...;!!!...#)...;'...;)#...)!!;...)!!!!!!!!!!!!!!!!!!!!!!!!!!!!!!!!,-%%%%%%-!!!!!,%%%%%%%,!!!!!!!!!!!!!!",
"!!!!!!!!!!!!!!!!!!!!!'')!!!!!!!!!!!!!!!!!!!!!!!!!!!!!!!!!!)>>!!!!>@@@@@@@**>'!)@@@@@@@>!#...)!!!...#;...)!#......#)!!!#..#!!!!!!!!!!!!!!!!!!!!!!!!!!!!!!!!!!!)-&%%%&!!!!!,%%%&-,!!!!!!!!!!!!!!!!",
"!!!!!!!!!!!!!!!!!!!!!!!!!!!!!!!!!!!!!!!!!!!!!!!!!!!!!!!!!!!!!!!!!!))''))!!!!!!!'''''''!!))))!!!!))))!)))!!!))))))!!!!!))))!!!!!!!!!!!!!!!!!!!!!!!!!!!!!!!!!!!!!!),-,!!!!!!-,,!!!!!!!!!!!!!!!!!!!"};
