/* XPM */
static char *team_logo_xpm[] = {
/* columns rows colors chars-per-pixel */
"136 64 52 1 ",
"  c black",
". c #010101",
"X c #020202",
"o c gray1",
"O c #030304",
"+ c #040404",
"@ c gray2",
"# c #060606",
"$ c #070707",
"% c gray3",
"& c #080908",
"* c #090909",
"= c #080A08",
"- c gray4",
"; c #0B0B0B",
": c #0C0C0C",
"> c gray5",
", c #0C0C0E",
"< c #0E0E0E",
"1 c gray6",
"2 c #101010",
"3 c #111111",
"4 c gray7",
"5 c #131313",
"6 c gray8",
"7 c #151515",
"8 c #161616",
"9 c gray9",
"0 c #181818",
"q c gray10",
"w c #1B1B1B",
"e c gray11",
"r c #1D1D1D",
"t c #1E1E1E",
"y c gray12",
"u c #202020",
"i c gray13",
"p c #222222",
"a c #232323",
"s c gray14",
"d c gray15",
"f c #272727",
"g c gray17",
"h c gray18",
"j c gray19",
"k c #353535",
"l c gray21",
"z c #393939",
"x c gray23",
"c c #464646",
"v c #484848",
"b c None",
/* pixels */
"bbbbbbbbbbbbbbbbbbbbbbbbbbbbbbbbbbbbbbbbbbbbbbbbbbbbbbbbbbbbbbbbbbbbbbbbbbbbbbbbbbbbbbbbbbbbbbbbbbbbbbbbbbbbbbbbbbbbbbbbbbbbbbbbbbbbbbbb",
"bbbbbbbbbbbbbbbbbbbbbbbbbbbbbbbbbbbbbbbbbbbbbbbbbbbbbbbbbbbbbbbbbbbb%X+%bbbbbbbbbbbbbbbbbbbbbbbbbbbbbbbbbbbbbbbbbbbbbbbbbbbbbbbbbbbbbbbb",
"bbbbbbbbbbbbbbbbbbbbbbbbbbbbbbbbbbbbbbbbbbbbbbbbbbbbbbbbbbbbbbbbbbbbXXXX+Xbbbbbbbbbbbbbbbbbbbbbbbbbbbbbbbbbbbbbbbbbbbbbbbbbbbbbbbbbbbbbb",
"bbbbbbbbbbbbbbbbbbbbbbbbbbbbbbbbbbbbbbbbbbbbbbbbbbbbbbbbbbbbbbbbbbbbXXXXXXbbbbbbbbbbbbbbbbbbbbbbbbbbbbbbbbbbbbbbbbbbbbbbbbbbbbbbbbbbbbbb",
"bbbbbbbbbbbbbbbbbbbbbbbbbbbbbbbbbbbbbbbbbbbbbbbbbbbbbbbbbbbbbbbbbbbbbb1%XXbbbbbbbbbbbbbbbbbbbbbbbbbbbbbbbbbbbbbbbbbbbbbbbbbbbbbbbbbbbbbb",
"bbbbbbbbbbbbbbbbbbbbbbbbbbbbbbbbbbbbbbbbbbbbbbbbbbbbbbbbbbbbbbbbbbb+X+%bbbbbbbbbbbbbbbbbbbbbbbbbbbbbbbbbbbbbbbbbbbbbbbbbbbbbbbbbbbbbbbbb",
"bbbbbbbbbbbbbbbbbbbbbbbbbbbbbbbbbbbbbbbbbbbbbbbbbbbbbbbbbbbbbbbbbbbb1XXXXbbbbbbbbbbbbbbbbbbbbbbbbbbbbbbbbbbbbbbbbbbbbbbbbbbbbbbbbbbbbbbb",
"bbbbbbbbbbbbbbbbbbbbbbbbbbbbbbbbbbbbbbbbbbbbbbbbbbbbbbbbbbbbbbbbbbbxkq+XX%bbbbbbbbbbbbbbbbbbbbbbbbbbbbbbbbbbbbbbbbbbbbbbbbbbbbbbbbbbbbbb",
"bbbbbbbbbbbbbbbbbbbbbbbbbbbbbbbbbbbbbbbbbbbbbbbbbbbbbbbbbbbbbbbbbbb21q1XXXbbbbbbbbbbbbbbbbbbbbbbbbbbbbbbbbbbbbbbbbbbbbbbbbbbbbbbbbbbbbbb",
"bbbbbbbbbbbbbbbbbbbbbbbbbbbbbbbbbbbbbbbbbbbbbbbbbbbbbbbbbbbbbbbbbbbXX++XXXbbbbbbbbbbbbbbbbbbbbbbbbbbbbbbbbbbbbbbbbbbbbbbbbbbbbbbbbbbbbbb",
"bbbbbbbbbbbbbbbbbbbbbbbbbbbbbbbbbbbbbbbbbbbbbbbbbbbbbbbbbbbbbbbbbbb+XXbXXXbbbbbbbbbbbbbbbbbbbbbbbbbbbbbbbbbbbbbbbbbbbbbbbbbbbbbbbbbbbbbb",
"bbbbbbbbbbbbbbbbbbbbbbbbbbbbbbbbbbbbbbbbbbbbbbbbbbbbbbbbbbbbbbbbbbbXX7bbXbbbbbbbbbbbbbbbbbbbbbbbbbbbbbbbbbbbbbbbbbbbbbbbbbbbbbbbbbbbbbbb",
"bbbbbbbbbbbbbbbbbbbbbbbbbbbbbbbbbbbbbbbbbbbbbbbbbbbbbbbbbbbbbbbbbb+X2b2bbbbbbbbbbbbbbbbbbbbbbbbbbbbbbbbbbbbbbbbbbbbbbbbbbbbbbbbbbbbbbbbb",
"bbbbbbbbbbbbbbbbbbbbbbbbbbbbbbbbbbbbbbbbbbbbbbbbbbbbbbbbbbbbbbbbbbX%bXX+bbbbbbbbbbbbbbbbbbbbbbbbbbbbbbbbbbbbbbbbbbbbbbbbbbbbbbbbbbbbbbbb",
"bbbbbbbbbbbbbbbbbbbbbbbbbbbbbbbbbbbbbbbbbbbbbbbbbbbbb+++bbbbbbbbbbXb+XXXXbbbbbbbbbbbbbbbbbbbbbbbbbbbbbbbbbbbbbbbbbbbbbbbbbbbbbbbbbbbbbbb",
"bbbbbbbbbbbbbbbbbbbbbbbbbbbbbbbbbbbbbbbbbbbbbbbbbbbbb+XXXbbbbbbbbbbbXXXXXbbbbbbbbbbbbbbbbbbbbbbbbbbbbbbbbbbbbbbbbbbbbbbbbbbbbbbbbbbbbbbb",
"bbbbbbbbbbbbbbbbbbbbbbbbbbbbbbbbbbbbbbbbbbbbbbbbbbbbbbXXXXXbbbbbbb21XXXX+bbbbbbbbbbbbbbbbbbbbbbbbbbbbbbbbbbbbbbbbbbbbbbbbbbbbbbbbbbbbbbb",
"bbbbbbbbbbbbbbbbbbbbbbbbbbbbbbbbbbbbbbbbbbbbbbbbbbbbbbbb+%XX+bbbb%%XXXXXbbbbbbbbbbbbbbbbbbbbbbbbbbbbbbbbbbbbbbbbbbbbbbbbbbbbbbbbbbbbbbbb",
"bbbbbbbbbbbbbbbbbbbbbbbbbbbbbbbbbbbbbbbbbbbbbbbbbbbbbbbbbbXXXX+1b%1XXXXXbbbbbbbbbbbbbbbbbbbbbbbbbbbbbbbbbbbbbbbbbbbbbbbbbbbbbbbbbbbbbbbb",
"bbbbbbbbbbbbbbbbbbbbbbbbbbbbbbbbbbbbbbbbbbbbbbbbbbbbbb1%+bbXXXXX%bXXXXXXbbbbbbbbbbbbbbbbbbbbbbbbbbbbbbbbbbbbbbbbbbbbbbbbbbbbbbbbbbbbbbbb",
"bbbbbbbbbbbbbbbbbbbbbbbbbbbbbbbbbbbbbbbbbbbbbbbbbbbbbqbbbbbb++1b1XXXXXXXbbbbbbbbbbbbbbbbbbbbbbbbbbbbbbbbbbbbbbbbbbbbbbbbbbbbbbbbbbbbbbbb",
"bbbbbbbbbbbbbbbbbbbbbbbbbbbbbbbbbbbbbbbbbbbbbbbbbbbb%bbb1X+bb++XXXXXXXX+bbbbbbbbbbbbbbbbbbbbbbbbbbbbbbbbbbbbbbbbbbbbbbbbbbbbbbbbbbbbbbbb",
"bbbbbbbbbbbbbbbbbbbbbbbbbbbbbbbbbbbbbbbbbbbbbbbbbbbb+bbbXXX%+XXXXXXXXXX%bbbbbbbbbbbbbbbbbbbbbbbbbbbbbbbbbbbbbbbbbbbbbbbbbbbbbbbbbbbbbbbb",
"bbbbbbbbbbbbbbbbbbbbbbbbbbbbbbbbbbbbbbbbbbbbbbbbbbbbb7bbb2%2+XXXXXXXXXX1bbbbbbbbbbbbbbbbbbbbbbbbbbbbbbbbbbbbbbbbbbbbbbbbbbbbbbbbbbbbbbbb",
"bbbbbbbbbbbbbbbbbbbbbbbbbbbbbbbbbbbbbbbbbbbbbbbbbbbbbb+1%bbbbXXXXXXXXXX1bbbbbbbbbbbbbbbbbbbbbbbbbbbbbbbbbbbbbbbbbbbbbbbbbbbbbbbbbbbbbbbb",
"b+XXX+bbbbbbbbbbbbbbbbbbbbbbbbbbbbbbbbbbbbbbbbbbbbbbbbbbbbbbbXXXXXXXXX+%bbbbbbbbbbbbbbbbbbbbbbbbbbbbbbbbbbbbbbbbbbbbbbbbbbbbbbbb%X+XX+bb",
"+XXXXXbXXX7bbbbbbbbbbbbbbbbbbbbbbbbbbbbbbbbbbbbbbbbbbbbbbbbbbbXXXXXXXX1+bbbbbbbbbbbbbbbbbbbbbbbbbbbbbbbbbbbbbbbbbbbbbbbbbbbb7++bXXXXXXbb",
"bX+1%%bbXXXXXX+++%bXXXXXXXXXXX+X++%++%+bbXXXXXXXXXXXXXXXXXXXX2+XXXXXXXbXXXXXXXXXX+X+XXXXXXXXXbb+++++%+++X+XXXXXXXXXXb%+++XXXXXXb+gkrXXbb",
"bb+1%1bb+22111X1%bb+XXX++2%21%7%711212bbbbXXXXXXXXXXXXXXXXXXX+bXXXXXXX2XXXXXXXXXXXXXXXXXXXXXXbbbb%+%1%2%2%22+1++XXXbb+X27jcckXbb+7q%Xbbb",
"bXXXXX1bXXXXX+X+++bbXXX+X++++%%1%%%1%%+%bbbXXXXXXXXXXXXXXXXXXXb+XXXXX%%XXXXXXXXXXXXXXXXXXXXXbb%%%%++++%+%+++++XXXXXbbXX+%7if7X17XXXXXXbb",
"bXX+27%bb+1+1%2%%%bXXXXX++%%%1%%11111%%++bbbXXXXXXXXXXXXXXXXXXb%XXXXXbX+2XXXXXXXXXXXXXXXXXbbb%%1%1%11%%%%%%+++XXXXXbbX%%11XXX+b+2i7XXbbb",
"bbb+12+bX+++%+%%%%2bbbX+X+++%%111%%%%%%%+bbbbbb+XXXXXXXXXX+XXbb+%XXXX%X%b1XXXXXXXXXXXXXbbbbbbb%%%%%%+%%%%%++XXXXXbbb11%+X++%++bbihrbbbbb",
"bbXXXXX%bXX+%1%111%bbXXX+%%%%+++%1%+%%1%+%%1bbbbbbbbbbbbbbf+1bb%+2XX++XqbbX2bbbbbbbbbbbbbbbb+X+%%%%%%1++X++%%+XXXXb11%%%%%%++b%XXXXXXbbb",
"bbXX%%%%bXXX+%112221bbbXXXXX++1+%+%%%%+%111+X++%+%%7+bX11bbXbbb%X72XbXXfbb1Xbb1bXb%b++++%+++111%+1%+%%+%1++XX+X+bbbX+%%%%%+X+b111%XXbbbb",
"bbbb+XXX+bb%%1+%1211+b+XXXX+++X+%%+%+%1%%1%+1%%%++1+%X%X%bX+bbb++X7XbXXrbbbXbr+%+1%+%++++2%%+%21%%%1%%1+X++%+XXXbb+%%%+X+++bb%XX+++bbbbb",
"bbbbXX+%%bbX+++%+++%+bbbXXXXX+++++%%1%%11%%1+%%+1+%X1X%+1bXXbb%X1X+b+XX1bbbXb2++%X1X1+%X1+1%%%+11%%%%%%%1+XXXXbbb%%++++++XXbb%%+XXXbbbbb",
"bbbbbb++XXbb+XXXX%1+X+%bXXXXXXXX++%%+%%+%%%%+%+2X%+1+++++bX+bb+X1+XbXXX%bbbXb+++++++++X%+1X1+%%%1%+%+++XX++XX+bb+XX+%%XXX+bb%XXX+bbbbbbb",
"bbbbbbXXX12+bbbXXXXX%1+%bbbXX+XXX%++%++++%+X%X2++%X+X%X%XbX1bb%XX1XbXXXXbbbXbX++X%XbX+X++X+X%X%%X+1+++X+++X+bbbXX%%XX++bbb%X11XXXbbbbbbb",
"bbbbbbbbXXXXbbbXX+++++1%+2bbbbXb+X++XX+X+XX+X++X1XXX++X+Xbb+bb+XX1r%XXXXbb1XbXX1X+XXXX+X%+X+X+XX%+X%XXbb+bbbbX+%%X+++XXbbb+XXXXbbbbbbbbb",
"bbbbbbbbbbb+XX+bbXX+%%+%1+X%bbbbbbbbbb%bbXbbbbbbbbbbbbbbbbbX7bXXXX1+XXXXbbXXbbbbbbbbbbbbbbbbbXbbbbbbbbbbbb2+X%%X+%XX+bb1XXX+1bbbbbbbbbbb",
"bbbbbbbbbbbXXX%21bbb+X++XX+XXX1+X1+%bb%bbbb+2b%bb%bXb%%b%%bXXbbXXXXXXXXXb%Xb1Xb%+bXb%%b+b+Xb1bb+bbXXb%X%+XX1+XX%XXbbb+X%+XXXbbbbbbbbbbbb",
"bbbbbbbbbbbbbbXXX+bbbbbbbb+Xb+XXb+Xb+Xb%Xb%Xb%XbXb+XbX+XX1%bXXbbXXXXXXXb%XbbbX+bXbX+bXb++bX%bX%bX+bXX1XXXbXXbbXbbb2+%XXXXbbbbbbbbbbbbbbb",
"bbbbbbbbbbbbbbbbbbXXX%XX+bbbbbbbbbbbbbbbbbbbbbbbbbbbbbbbbbbbbXXbbbbbbbb%Xbbbbbbbbbbbbbbbbbbbbbbbbbbbbbbbbbbqbbb%X%+XXbbbbbbbbbbbbbbbbbbb",
"bbbbbbbbbbbbbbbbbbbbbXX+b+XX1+X++XX1%X+1XX%XX%XXbXXb++%1bbX+XbXX%rfbf2+XbbXXXb1X1XX%X+%X++XX%XX%XX+1XX77+X1%XXbXXXbbbbbbbbbbbbbbbbbbbbbb",
"bbbbbbbbbbbbbbbbbbbbbbbbbbbbbbbbbbbbbbbbbbb+bbXbbbbbbbbbXX17XbbbXXXXXXbbb+$i+XbbbbXbbbbbXbbXbbbbbbbbbbbbbbbbbbbbbbbbbbbbbbbbbbbbbbbbbbbb",
"bbbbbbbbbbbbbbbbbbbbbbbbbbbbbbbbbbbbbbbbbbbbbbbbbbbbbbbX+bb1X%1bbbbbbbbbO1+bb1XXbbbbbbbbbbbbbbbbbbbbbbbbbbbbbbbbbbbbbbbbbbbbbbbbbbbbbbbb",
"bbbbbbbbbbbbbbbbbbbbbbbbbbbbbbbbbbbbbbbbbbbbbbbbbbbbbbX+bbb+X%2%+++1%%%+%%%+bb<XXbbbbbbbbbbbbbbbbbbbbbbbbbbbbbbbbbbbbbbbbbbbbbbbbbbbbbbb",
"bbbbbbbbbbbbbbbbbbbbbbbbbbbbbbbbbbbbbbbbbbbbbbbbbbbbbXXbbbb++11%%%%222%%%%%Xbbb+Xbbbbbbbbbbbbbbbbbbbbbbbbbbbbbbbbbbbbbbbbbbbbbbbbbbbbbbb",
"bbbbbbbbbbbbbbbbbbbbbbbbbbbbbbbbbbbbbbbbbbbbbbbbbbbbbX%bbb++%%%%+%111%%+%%%+bbbbX+bbbbbbbbbbbbbbbbbbbbbbbbbbbbbbbbbbbbbbbbbbbbbbbbbbbbbb",
"bbbbbbbbbbbbbbbbbbbbbbbbbbbbbbbbbbbbbbbbbbbbbbbbbbbbXXbbbbX+%+%+%+X%%1+%++%++bbb%Xbbbbbbbbbbbbbbbbbbbbbbbbbbbbbbbbbbbbbbbbbbbbbbbbbbbbbb",
"bbbbbbbbbbbbbbbbbbbbbbbbbbbbbbbbbbbbbbbbbbbbbbbbbbbbX1bbbbX1+X%++%++++++%++%XbbbbXXbbbbbbbbbbbbbbbbbbbbbbbbbbbbbbbbbbbbbbbbbbbbbbbbbbbbb",
"bbbbbbbbbbbbbbbbbbbbbbbbbbbbbbbbbbbbbbbbbbbbbbbbbbbbXbbbbbX1%+%++++X++++++++Xbbbb++bbbbbbbbbbbbbbbbbbbbbbbbbbbbbbbbbbbbbbbbbbbbbbbbbbbbb",
"bbbbbbbbbbbbbbbbbbbbbbbbbbbbbbbbbbbbbbbbbbbbbbbbbbb%XbbbbbbbbX%+%++XX+X+%1bbbbbbb+Xbbbbbbbbbbbbbbbbbbbbbbbbbbbbbbbbbbbbbbbbbbbbbbbbbbbbb",
"bbbbbbbbbbbbbbbbbbbbbbbbbbbbbbbbbbbbbbbbbbbbXX+bbbbXXbbbbXbbbbbbbbbbbbbbbbb+%+bbbbX2bbbbXXXbbbbbbbbbbbbbbbbbbbbbbbbbbbbbbbbbbbbbbbbbbbbb",
"bbbbbbbbbbbbbbbbbbbbbbbbbbbbbbbbbbbbbbbbbbbXXXXbbb%XbbbbbX%X%%%1bbbbbbb12+1XbXbbbbXXbbbXXXXbbbbbbbbbbbbbbbbbbbbbbbbbbbbbbbbbbbbbbbbbbbbb",
"bbbbbbbbbbbbbbbbbbbbbbbbbbbbbbbbbbbbbbbbbbbXXXXbb2X+bbbbb%X+X%+%%++X+2++++++XbbbbbbX+bb1XXXXbbbbbbbbbbbbbbbbbbbbbbbbbbbbbbbbbbbbbbbbbbbb",
"bbbbbbbbbbbbbbbbbbbbbbbbbbbbbbbbbbbbbbbbbbbXXXX++XXbbbbbbbbbXbX+XXXXX1++XbXbbbbbbbbbXX+1XXXbbbbbbbbbbbbbbbbbbbbbbbbbbbbbbbbbbbbbbbbbbbbb",
"bbbbbbbbbbbbbbbbbbbbbbbbbbbbbbbbbbbbbbbbbbbbXXXXXbbbbbbbX1bbbbbb%b1bXbbbbbbb+++bbbbbbXXXXXbbbbbbbbbbbbbbbbbbbbbbbbbbbbbbbbbbbbbbbbbbbbbb",
"bbbbbbbbbbbbbbbbbbbbbbbbbbbbbbbbbbbbbbbbbbbbbbbbbbbbbbbXX2X%X%bbbbbbbbbbXbX2X1X+bbbbbbbbbbbbbbbbbbbbbbbbbbbbbbbbbbbbbbbbbbbbbbbbbbbbbbbb",
"bbbbbbbbbbbbbbbbbbbbbbbbbbbbbbbbbbbbbbbbbbbbbbbbbbbbbbbXX+X%+2X1X1X2X%X%X%X+X+XXbbbbbbbbbbbbbbbbbbbbbbbbbbbbbbbbbbbbbbbbbbbbbbbbbbbbbbbb",
"bbbbbbbbbbbbbbbbbbbbbbbbbbbbbbbbbbbbbbbbbbbbbbbbbbbbbbb+XXX+X+X%+2X%X%X+X+XXXX1bbbbbbbbbbbbbbbbbbbbbbbbbbbbbbbbbbbbbbbbbbbbbbbbbbbbbbbbb",
"bbbbbbbbbbbbbbbbbbbbbbbbbbbbbbbbbbbbbbbbbbbbbbbbbbbbbbbbb+++++XX+1XXXXXXX+X+bbbbbbbbbbbbbbbbbbbbbbbbbbbbbbbbbbbbbbbbbbbbbbbbbbbbbbbbbbbb",
"bbbbbbbbbbbbbbbbbbbbbbbbbbbbbbbbbbbbbbbbbbbbbbbbbbbbbbbbbbbbbXX+X%XbXbXXXbbbbbbbbbbbbbbbbbbbbbbbbbbbbbbbbbbbbbbbbbbbbbbbbbbbbbbbbbbbbbbb",
"bbbbbbbbbbbbbbbbbbbbbbbbbbbbbbbbbbbbbbbbbbbbbbbbbbbbbbbbbbbbbbbbbbbbbbbbbbbbbbbbbbbbbbbbbbbbbbbbbbbbbbbbbbbbbbbbbbbbbbbbbbbbbbbbbbbbbbbb"
};
